<?xml version="1.0" encoding="UTF-8" standalone="no"?>
<!-- Created with Inkscape (http://www.inkscape.org/) -->

<svg
   xmlns:dc="http://purl.org/dc/elements/1.1/"
   xmlns:cc="http://creativecommons.org/ns#"
   xmlns:rdf="http://www.w3.org/1999/02/22-rdf-syntax-ns#"
   xmlns:svg="http://www.w3.org/2000/svg"
   xmlns="http://www.w3.org/2000/svg"
   xmlns:sodipodi="http://sodipodi.sourceforge.net/DTD/sodipodi-0.dtd"
   xmlns:inkscape="http://www.inkscape.org/namespaces/inkscape"
   width="96.043747mm"
   height="11.543756mm"
   viewBox="0 0 96.043747 11.543756"
   version="1.1"
   id="svg8"
   inkscape:version="0.92.3 (2405546, 2018-03-11)"
   sodipodi:docname="logo-focus.svg">
  <defs
     id="defs2" />
  <sodipodi:namedview
     id="base"
     pagecolor="#ffffff"
     bordercolor="#666666"
     borderopacity="1.0"
     inkscape:pageopacity="0.0"
     inkscape:pageshadow="2"
     inkscape:zoom="2.8"
     inkscape:cx="117.13086"
     inkscape:cy="19.157779"
     inkscape:document-units="mm"
     inkscape:current-layer="layer1"
     showgrid="false"
     inkscape:window-width="1920"
     inkscape:window-height="1025"
     inkscape:window-x="0"
     inkscape:window-y="27"
     inkscape:window-maximized="1" />
  <metadata
     id="metadata5">
    <rdf:RDF>
      <cc:Work
         rdf:about="">
        <dc:format>image/svg+xml</dc:format>
        <dc:type
           rdf:resource="http://purl.org/dc/dcmitype/StillImage" />
        <dc:title></dc:title>
      </cc:Work>
    </rdf:RDF>
  </metadata>
  <g
     inkscape:label="Layer 1"
     inkscape:groupmode="layer"
     id="layer1"
     transform="translate(-57.055515,-144.69107)">
    <path
       style="fill:#fefefe;stroke-width:0.26458332"
       d="m 72.136764,155.96539 c -1.375335,-0.41413 -2.640309,-1.48877 -3.197988,-2.71682 -0.921363,-2.0289 -0.545728,-5.41755 0.760683,-6.8622 1.895066,-2.0956 7.021314,-2.27116 9.115618,-0.31219 1.263609,1.18195 1.64564,2.196 1.644677,4.36555 -0.0016,3.70917 -1.782062,5.55918 -5.506687,5.72191 -1.039644,0.0454 -2.30698,-0.0429 -2.816303,-0.19625 z m 3.679298,-3.87201 c 1.091958,-1.02224 1.204799,-1.65954 0.483383,-2.73005 -0.847601,-1.25775 -1.833486,-1.566 -2.774151,-0.86738 -1.201094,0.89204 -1.546446,1.71753 -1.134559,2.71191 0.352886,0.85194 1.351869,1.5832 2.189251,1.60253 0.252365,0.006 0.8086,-0.31683 1.236076,-0.71701 z m 17.954104,3.90374 c -1.330947,-0.40076 -2.465446,-1.28763 -3.115469,-2.43546 -0.526425,-0.92957 -0.643133,-1.50035 -0.638344,-3.12193 0.0067,-2.25836 0.383855,-3.19105 1.789665,-4.42536 2.184022,-1.9176 7.07489,-1.71458 8.961802,0.372 0.80054,0.88525 1.26701,2.40594 1.26105,4.11101 -0.0101,2.88276 -1.34743,4.79284 -3.830648,5.47115 -1.217324,0.33252 -3.372464,0.34644 -4.428056,0.0286 z m 3.584969,-3.81504 c 1.380935,-1.27981 1.0961,-2.84119 -0.703974,-3.85901 -0.624366,-0.35304 -0.780804,-0.35274 -1.416254,0.003 -0.392895,0.21977 -0.935445,0.77814 -1.205666,1.24082 -0.452824,0.77534 -0.459161,0.90341 -0.08091,1.63488 0.852678,1.64889 2.251308,2.05147 3.406799,0.9806 z m 39.339955,3.90818 c -2.27676,-0.73735 -2.64583,-0.95203 -2.64583,-1.53905 0,-0.334 0.18531,-1.05077 0.41179,-1.59283 0.37618,-0.90032 0.48487,-0.97419 1.25677,-0.85411 0.46474,0.0723 1.35819,0.32456 1.98544,0.56058 0.76165,0.28659 1.28582,0.34778 1.57808,0.18422 0.34065,-0.19063 0.0879,-0.34458 -1.14046,-0.69473 -3.28259,-0.93569 -3.83035,-1.47692 -3.82314,-3.77758 0.008,-2.64124 1.30166,-3.6263 4.7586,-3.6242 1.30205,7.9e-4 2.61101,0.15355 3.10886,0.36282 0.72441,0.30452 0.85989,0.49961 0.85989,1.23819 0,0.48219 -0.12098,1.19493 -0.26885,1.58385 -0.24291,0.6389 -0.36418,0.69188 -1.25677,0.54909 -2.94308,-0.47079 -3.31109,-0.49758 -3.14504,-0.22891 0.0941,0.15229 0.79656,0.42388 1.56099,0.60355 2.91203,0.68444 3.63884,1.43834 3.63884,3.77448 0,1.34748 -0.0974,1.64634 -0.74845,2.29743 -0.41166,0.41165 -1.21533,0.87808 -1.78594,1.03651 -1.04226,0.28938 -3.60418,0.36054 -4.34478,0.12069 z m -79.639575,-5.65053 v -5.55625 h 1.719791 1.719792 v 1.98438 1.98437 h 1.5875 1.5875 v -1.98437 -1.98438 h 1.852083 1.852083 v 5.55625 5.55626 h -1.852083 -1.852083 v -1.98438 -1.98438 h -1.5875 -1.5875 v 1.98438 1.98438 h -1.719792 -1.719791 z m 24.606249,0 v -5.55625 h 1.719792 1.719791 v 3.96875 3.96875 h 2.513542 2.513542 v 1.5875 1.58751 h -4.233334 -4.233333 z m 23.687926,4.69636 c -0.19918,-0.47294 -1.1456,-2.6861 -2.10316,-4.91812 -0.95756,-2.23202 -1.74102,-4.34538 -1.74102,-4.69636 0,-0.61578 0.0672,-0.63812 1.91823,-0.63797 l 1.91823,1.6e-4 1.02668,2.51909 c 0.56468,1.38549 1.10868,2.56976 1.20889,2.6317 0.10021,0.0619 0.66832,-1.04196 1.26246,-2.4531 l 1.08025,-2.56571 6.24367,-0.0709 6.24367,-0.0709 v 1.59228 1.59229 h -2.51354 c -2.05787,0 -2.51354,0.0719 -2.51354,0.39688 0,0.32165 0.42627,0.39687 2.24896,0.39687 h 2.24896 v 1.5875 1.5875 h -2.24896 c -1.82269,0 -2.24896,0.0752 -2.24896,0.39688 0,0.32632 0.47037,0.39687 2.64583,0.39687 h 2.64584 v 1.5875 1.58751 h -4.49208 -4.49208 l -0.072,-4.8849 -0.072,-4.88488 -2.09649,4.88488 -2.09649,4.8849 h -1.81961 c -1.80222,0 -1.82308,-0.008 -2.18177,-0.8599 z m 18.6454,-4.69636 v -5.55625 l 3.37344,4.3e-4 c 3.73386,4.5e-4 4.72023,0.28809 5.73588,1.67263 0.82126,1.11956 0.78196,4.05156 -0.0697,5.20355 l -0.61772,0.83551 0.68386,0.98681 c 0.37613,0.54274 0.68387,1.30783 0.68387,1.70019 0,0.70678 -0.0172,0.71339 -1.85005,0.71339 h -1.85005 l -0.86193,-1.31817 c -1.16314,-1.7788 -1.78797,-1.78046 -1.78797,-0.005 v 1.32292 h -1.7198 -1.71979 z m 5.30906,-0.53847 c 1.12487,-0.60201 0.32321,-1.84278 -1.19062,-1.84278 -0.61561,0 -0.67885,0.0986 -0.67885,1.05834 0,0.95973 0.0632,1.05833 0.67885,1.05833 0.37337,0 0.90915,-0.12325 1.19062,-0.27389 z m 15.32844,0.53847 v -5.55625 h 4.23334 4.23333 v 1.5875 1.5875 h -2.51354 c -2.05787,0 -2.51354,0.0719 -2.51354,0.39688 0,0.32165 0.42627,0.39687 2.24895,0.39687 h 2.24896 v 1.5875 1.5875 h -2.24896 c -1.82268,0 -2.24895,0.0752 -2.24895,0.39688 0,0.32493 0.45567,0.39687 2.51354,0.39687 h 2.51354 v 1.5875 1.58751 h -4.23333 -4.23334 z"
       id="path841"
       inkscape:connector-curvature="0" />
  </g>
</svg>
